<?xml version="1.0" encoding="UTF-8" standalone="no"?>
<!-- Created with Inkscape (http://www.inkscape.org/) -->

<svg
   version="1.1"
   id="svg1"
   width="176.61397"
   height="176.79181"
   viewBox="0 0 176.61397 176.79181"
   xmlns="http://www.w3.org/2000/svg"
   xmlns:svg="http://www.w3.org/2000/svg">
  <defs
     id="defs1" />
  <g
     id="g1"
     transform="translate(-115.53333,-43.315181)">
    <path
       style="fill:#c5c8bf;fill-opacity:1"
       d="m 154.87049,219.86827 c -1.23833,-0.42766 -2.84015,-2.38559 -5.67049,-6.93117 -1.49937,-2.40801 -3.08593,-3.60979 -4.79192,-3.62976 -0.3439,-0.004 -2.70071,0.81767 -5.23738,1.82601 -2.53666,1.00833 -5.00763,1.83333 -5.49103,1.83333 -1.61715,0 -3.19247,-1.01841 -3.82996,-2.47599 -0.53376,-1.22042 -0.55931,-1.80399 -0.25335,-5.78521 0.38471,-5.00575 0.22484,-6.44065 -0.82838,-7.43507 -1.21944,-1.15136 -2.31166,-1.57432 -6.44605,-2.49622 -2.1754,-0.48507 -4.34743,-1.11053 -4.82675,-1.38991 -1.24628,-0.72641 -1.96185,-2.12545 -1.96185,-3.83568 0,-1.67977 0.47185,-2.42117 4.29495,-6.74859 3.63114,-4.11011 3.63114,-5.55655 0,-9.66666 -3.81419,-4.31732 -4.29495,-5.07102 -4.29495,-6.73324 0,-1.91529 0.78473,-3.3775 2.10972,-3.93112 0.58599,-0.24484 3.01353,-0.91794 5.39453,-1.49578 4.00152,-0.97111 4.42367,-1.14885 5.57909,-2.34899 1.41881,-1.47374 1.4365,-1.62813 0.93403,-8.15328 -0.22797,-2.9605 -0.187,-3.89989 0.21377,-4.90152 0.56778,-1.41901 2.2927,-2.60274 3.7927,-2.60274 0.54216,0 3.08143,0.825 5.64283,1.83333 2.5614,1.00834 4.96407,1.83334 5.33925,1.83334 0.37519,0 1.18831,-0.21149 1.80693,-0.46996 1.1105,-0.464 1.50467,-0.98393 5.37844,-7.0944 2.07145,-3.26748 4.53689,-4.24077 6.80304,-2.68564 0.62847,0.43128 2.17218,2.44436 3.63263,4.73715 2.64928,4.15918 4.05964,5.51285 5.74372,5.51285 0.51631,0 2.99466,-0.825 5.50743,-1.83334 4.98852,-2.00181 6.07226,-2.16596 7.70953,-1.1677 1.9872,1.2116 2.22934,2.25965 1.8206,7.88005 -0.54053,7.43248 -0.33541,7.70717 7.14686,9.57084 4.24231,1.05667 5.07416,1.37234 5.85458,2.22167 2.11628,2.30316 1.71325,4.03293 -1.91909,8.23653 -3.25913,3.7717 -4.31204,5.62838 -3.99929,7.05232 0.19514,0.88848 1.59696,2.97387 3.39187,5.04586 3.79522,4.3811 4.19328,5.24211 3.45612,7.47572 -0.58222,1.76415 -2.06578,2.69668 -5.33929,3.35616 -4.20372,0.84689 -6.78448,1.72259 -7.58033,2.57214 -1.29932,1.38701 -1.41853,2.24835 -1.022,7.38433 0.40308,5.22084 0.25672,6.14111 -1.19333,7.50337 -0.40997,0.38514 -1.41637,0.78955 -2.2488,0.90365 -1.25122,0.1715 -1.92632,0.0223 -3.98113,-0.87991 -6.13032,-2.69162 -8.0071,-3.03217 -9.89464,-1.79541 -0.43363,0.28413 -2.04384,2.44625 -3.57824,4.80471 -1.53441,2.35847 -3.06247,4.43108 -3.39568,4.6058 -1.11749,0.58595 -2.59648,0.70295 -3.76869,0.29813 z m 116.99618,-1.22699 c -1.19167,-0.1531 -4.64167,-0.52254 -7.66667,-0.82096 -3.025,-0.29842 -9.625,-0.98668 -14.66666,-1.52946 -5.04167,-0.54277 -11.48911,-1.21891 -14.32765,-1.50253 -5.71367,-0.57088 -9.14222,-1.24678 -11.20204,-2.20835 -1.85047,-0.86383 -4.82907,-3.57509 -6.09511,-5.54805 -2.25224,-3.5098 -2.16144,-2.34481 -2.2906,-29.38999 -0.0747,-15.63737 0.008,-25.51881 0.22938,-27.33333 0.64844,-5.32078 3.31811,-9.20433 7.96526,-11.58702 4.19307,-2.14988 6.49427,-2.17267 23.72076,-0.23492 3.94166,0.44338 9.56666,1.0303 12.5,1.30427 7.45759,0.69651 16.85095,1.80435 19.93265,2.35083 4.69995,0.83345 8.54194,3.83734 10.83806,8.47383 l 1.22929,2.48224 0.0971,25.46049 c 0.0571,14.97411 -0.0343,26.40855 -0.22193,27.76236 -0.72205,5.21035 -4.37775,9.66769 -9.54179,11.63412 -2.26274,0.86164 -6.81844,1.15948 -10.5,0.68647 z M 177.73925,116.95123 c -6.93741,-1.74651 -12.11596,-9.98595 -11.42366,-18.175847 0.3255,-3.850773 2.17891,-8.371768 5.62088,-13.71099 0.96994,-1.504585 2.66353,-4.174366 3.76353,-5.932845 1.1,-1.758479 3.05,-4.834366 4.33333,-6.835304 1.28334,-2.000938 2.58319,-4.056158 2.88857,-4.567156 0.8495,-1.421515 4.55026,-7.21893 4.84872,-7.595753 0.1452,-0.183333 1.15429,-1.758333 2.24241,-3.5 4.79959,-7.682343 8.73328,-11.414172 13.49747,-12.804846 3.65391,-1.06658 7.17664,-0.479792 11.06174,1.842569 3.87348,2.31542 6.39741,5.435817 13.45029,16.628944 4.52969,7.188731 5.92811,9.401158 8.00633,12.666667 7.06774,11.105596 9.95886,16.576869 11.33664,21.453957 0.9523,3.370937 1.02106,4.884294 0.35045,7.712704 -1.29842,5.47634 -4.38886,9.38002 -9.3875,11.85785 l -2.29511,1.13769 -4.83334,-0.005 c -4.82226,-0.005 -4.8505,-0.009 -12.33333,-1.9717 -7.22442,-1.8947 -7.6531,-1.96701 -11.66667,-1.96809 -4.2354,-10e-4 -6.49978,0.44131 -17,3.32168 -2.21348,0.60719 -10.62373,0.90767 -12.46075,0.44519 z"
       id="path1" />
  </g>
</svg>
